<?xml version="1.0" encoding="UTF-8" standalone="no"?>
<!-- Created with Inkscape (http://www.inkscape.org/) -->

<svg
   xmlns:dc="http://purl.org/dc/elements/1.1/"
   xmlns:cc="http://creativecommons.org/ns#"
   xmlns:rdf="http://www.w3.org/1999/02/22-rdf-syntax-ns#"
   xmlns:svg="http://www.w3.org/2000/svg"
   xmlns="http://www.w3.org/2000/svg"
   xmlns:sodipodi="http://sodipodi.sourceforge.net/DTD/sodipodi-0.dtd"
   xmlns:inkscape="http://www.inkscape.org/namespaces/inkscape"
   version="1.1"
   id="svg2"
   xml:space="preserve"
   width="1492.6077"
   height="350.47839"
   viewBox="0 0 1492.6077 350.47839"
   sodipodi:docname="lullabot-logo.svg"
   inkscape:version="0.92.3 (2405546, 2018-03-11)"><metadata
     id="metadata8"><rdf:RDF><cc:Work
         rdf:about=""><dc:format>image/svg+xml</dc:format><dc:type
           rdf:resource="http://purl.org/dc/dcmitype/StillImage" /><dc:title></dc:title></cc:Work></rdf:RDF></metadata><defs
     id="defs6"><clipPath
       clipPathUnits="userSpaceOnUse"
       id="clipPath18"><path
         d="M 0,1080 H 1920 V 0 H 0 Z"
         id="path16"
         inkscape:connector-curvature="0" /></clipPath></defs><sodipodi:namedview
     pagecolor="#ffffff"
     bordercolor="#666666"
     borderopacity="1"
     objecttolerance="10"
     gridtolerance="10"
     guidetolerance="10"
     inkscape:pageopacity="0"
     inkscape:pageshadow="2"
     inkscape:window-width="1903"
     inkscape:window-height="888"
     id="namedview4"
     showgrid="false"
     fit-margin-top="0"
     fit-margin-left="0"
     fit-margin-right="0"
     fit-margin-bottom="0"
     inkscape:pagecheckerboard="true"
     inkscape:zoom="0.39332815"
     inkscape:cx="765.43419"
     inkscape:cy="226.98268"
     inkscape:window-x="0"
     inkscape:window-y="0"
     inkscape:window-maximized="0"
     inkscape:current-layer="g10" /><g
     id="g10"
     inkscape:groupmode="layer"
     inkscape:label="lullabot-slide"
     transform="matrix(1.3333333,0,0,-1.3333333,-514.56581,843.49571)"><g
       id="g12"
       transform="translate(-13.347634,-40.042902)"><g
         id="g14"
         clip-path="url(#clipPath18)"><g
           id="g20"
           transform="translate(812.9269,525.9539)"><path
             d="m 0,0 c 2.088,0 3.781,-1.693 3.781,-3.781 v -62.765 c 0,-13.547 5.809,-18.145 15.487,-18.145 7.184,0 13.197,2.742 17.679,6.289 0.911,0.721 1.441,1.818 1.441,2.979 v 71.642 c 0,2.088 1.692,3.781 3.78,3.781 h 29.704 c 2.088,0 3.781,-1.693 3.781,-3.781 v -103.707 c 0,-1.909 -1.423,-3.519 -3.318,-3.752 l -29.704,-3.665 c -2.254,-0.278 -4.243,1.48 -4.243,3.752 v 3.705 c 0,3.172 -3.682,4.95 -6.141,2.946 -8.22,-6.702 -18.786,-11.646 -30.406,-11.646 -22.014,0 -35.326,14.759 -35.326,38.713 v 73.654 c 0,2.088 1.693,3.781 3.781,3.781 z"
             style="fill:#231f20;fill-opacity:1;fill-rule:nonzero;stroke:none"
             id="path22"
             inkscape:connector-curvature="0" /></g><g
           id="g24"
           transform="translate(916.4526,417.2101)"><path
             d="m 0,0 v 152.827 c 0,1.909 1.423,3.518 3.318,3.752 l 29.704,3.665 c 2.254,0.278 4.243,-1.481 4.243,-3.752 V 0 c 0,-2.088 -1.692,-3.781 -3.78,-3.781 H 3.781 C 1.693,-3.781 0,-2.088 0,0"
             style="fill:#231f20;fill-opacity:1;fill-rule:nonzero;stroke:none"
             id="path26"
             inkscape:connector-curvature="0" /></g><g
           id="g28"
           transform="translate(981.5807,417.2101)"><path
             d="m 0,0 v 152.827 c 0,1.909 1.423,3.518 3.318,3.752 l 29.704,3.665 c 2.254,0.278 4.243,-1.481 4.243,-3.752 V 0 c 0,-2.088 -1.692,-3.781 -3.78,-3.781 H 3.781 C 1.693,-3.781 0,-2.088 0,0"
             style="fill:#231f20;fill-opacity:1;fill-rule:nonzero;stroke:none"
             id="path30"
             inkscape:connector-curvature="0" /></g><g
           id="g32"
           transform="translate(1107.2095,460.9765)"><path
             d="m 0,0 c 0,1.361 -1.203,2.409 -2.554,2.237 -21.066,-2.687 -28.902,-7.086 -28.902,-16.634 0,-7.256 5.808,-12.091 14.039,-12.091 7.12,0 12.928,2.829 16.809,6.837 0.4,0.414 0.608,0.977 0.608,1.552 z m 0.246,-33.99 c -7.985,-9.442 -16.944,-17.18 -32.431,-17.18 -19.356,0 -34.361,13.793 -34.361,31.21 0,20.986 15.518,37.976 64.362,39.855 C -0.971,19.942 0,20.93 0,22.144 v 0 c 0,11.859 -6.045,17.181 -19.839,17.181 -10.9,0 -23.499,-4.26 -35.804,-10.181 -1.268,-0.611 -2.779,0.055 -3.163,1.409 l -6.51,22.972 c -0.295,1.042 0.192,2.14 1.157,2.631 11.896,6.053 29.802,12.449 50.129,12.449 38.959,0 51.788,-17.662 51.295,-49.124 l -0.236,-33.386 c 0,-6.928 1.157,-8.244 6.941,-8.959 1.238,-0.153 2.109,-1.302 1.941,-2.539 l -3.083,-22.59 c -0.139,-1.019 -0.955,-1.825 -1.976,-1.94 -23.274,-2.614 -34.919,3.894 -39.877,15.943 z"
             style="fill:#231f20;fill-opacity:1;fill-rule:nonzero;stroke:none"
             id="path34"
             inkscape:connector-curvature="0" /></g><g
           id="g36"
           transform="translate(1227.7581,499.8189)"><path
             d="m 0,0 c -7.491,0 -12.772,-2.606 -17.491,-6.54 -0.87,-0.726 -1.383,-1.788 -1.383,-2.921 v -43.426 c 0,-3.688 0.736,-4.976 1.952,-5.626 4.083,-2.186 9.211,-3.43 15.229,-3.43 15.969,0 25.165,12.582 25.165,31.21 C 23.472,-11.376 15.241,0 0,0 m 4.352,-89.776 c -7.214,0 -17.331,1.793 -24.549,4.294 -0.567,0.196 -1.163,0.261 -1.757,0.179 l -29.889,-4.118 c -2.271,-0.313 -4.296,1.452 -4.296,3.746 V 70.218 c 0,1.909 1.423,3.518 3.318,3.752 l 29.704,3.665 c 2.254,0.278 4.243,-1.48 4.243,-3.752 V 23.096 c 0,-3.18 3.67,-4.923 6.153,-2.935 6.522,5.222 14.969,9.602 25.55,9.602 27.823,0 47.908,-22.748 47.908,-58.561 0,-37.261 -25.894,-60.978 -56.385,-60.978"
             style="fill:#231f20;fill-opacity:1;fill-rule:nonzero;stroke:none"
             id="path38"
             inkscape:connector-curvature="0" /></g><g
           id="g40"
           transform="translate(1364.2761,501.2711)"><path
             d="m 0,0 c -15.241,0 -23.226,-12.341 -23.226,-31.703 0,-19.11 8.221,-31.21 23.472,-31.21 15.241,0 23.226,12.1 23.226,31.452 C 23.472,-12.583 15.251,0 0,0 m -0.482,-91.465 c -33.879,0 -59.773,21.286 -59.773,59.521 0,38.235 27.105,60.255 61.23,60.255 33.878,0 59.526,-21.778 59.526,-59.526 0,-37.753 -27.341,-60.25 -60.983,-60.25"
             style="fill:#231f20;fill-opacity:1;fill-rule:nonzero;stroke:none"
             id="path42"
             inkscape:connector-curvature="0" /></g><g
           id="g44"
           transform="translate(1491.8347,409.8062)"><path
             d="m 0,0 c -27.833,0 -42.828,11.372 -41.381,40.888 l 1.563,39.519 c 0.075,1.896 -1.268,3.554 -3.139,3.875 l -10.425,1.788 c -1.858,0.319 -3.197,1.957 -3.14,3.841 l 0.539,17.777 c 0.048,1.591 1.087,2.981 2.599,3.478 l 11.875,3.898 c 1.527,0.502 2.571,1.914 2.601,3.521 l 0.362,19.259 c 0.039,2.06 1.72,3.71 3.78,3.71 h 28.53 c 2.101,0 3.799,-1.713 3.78,-3.814 l -0.169,-19.231 c -0.018,-2.101 1.68,-3.814 3.781,-3.814 h 20.379 c 2.125,0 3.833,-1.75 3.78,-3.874 l -0.541,-21.72 c -0.051,-2.05 -1.728,-3.686 -3.779,-3.686 H -1.657 c -2.044,0 -3.718,-1.625 -3.779,-3.668 L -6.537,45.004 C -7.02,34.597 -0.965,30.245 8.231,30.245 c 3.363,0 6.985,0.649 10.676,1.66 2.182,0.597 4.395,-0.846 4.731,-3.083 L 26.851,7.372 C 27.134,5.485 25.962,3.676 24.123,3.164 16.745,1.107 9.947,0 0,0"
             style="fill:#231f20;fill-opacity:1;fill-rule:nonzero;stroke:none"
             id="path46"
             inkscape:connector-curvature="0" /></g><g
           id="g48"
           transform="translate(768.625,419.7276)"><path
             d="m 0,0 c -4.779,5.475 -6.941,13.242 -7.729,22.416 -0.113,1.316 -0.995,2.226 -2.086,2.816 -0.399,0.257 -0.834,0.425 -1.316,0.517 -0.135,0.014 -0.221,0.14 -0.359,0.14 h -11.357 c 0,0 -0.008,-0.002 -0.012,-0.002 h -44.792 c -2.088,0 -3.781,1.693 -3.781,3.781 v 111.495 c 0,2.088 -1.693,3.781 -3.78,3.781 h -30.915 c -2.088,0 -3.781,-1.693 -3.781,-3.781 V -2.517 c 0,-2.088 1.693,-3.781 3.781,-3.781 h 83.28 11.03 9.006 C 0.458,-6.298 2.149,-2.462 0,0"
             style="fill:#231f20;fill-opacity:1;fill-rule:nonzero;stroke:none"
             id="path50"
             inkscape:connector-curvature="0" /></g><g
           id="g52"
           transform="translate(584.49,525.861)"><path
             d="m 0,0 h -168.719 c -9.113,0 -16.499,-7.386 -16.499,-16.5 v -95.968 h 36.794 v 63.655 h 6.51 v -63.655 h 114.19 v 63.655 h 6.511 v -63.655 h 37.71 V -16.5 C 16.497,-7.386 9.108,0 0,0"
             style="fill:#e13426;fill-opacity:1;fill-rule:nonzero;stroke:none"
             id="path54"
             inkscape:connector-curvature="0" /></g><g
           id="g56"
           transform="translate(556.796,542.331)"><path
             d="m 0,0 c 0,-5.359 -4.352,-9.705 -9.707,-9.705 h -94.586 c -5.361,0 -9.704,4.346 -9.704,9.705 v 73.435 c 0,5.362 4.343,9.715 9.704,9.715 H -9.707 C -4.352,83.15 0,78.797 0,73.435 Z"
             style="fill:#e13426;fill-opacity:1;fill-rule:nonzero;stroke:none"
             id="path58"
             inkscape:connector-curvature="0" /></g><g
           id="g60"
           transform="translate(573.8032,560.6649)"><path
             d="m 0,0 c 0,-3.046 -2.469,-5.516 -5.513,-5.516 -3.049,0 -5.516,2.47 -5.516,5.516 v 36.773 c 0,3.047 2.467,5.514 5.516,5.514 C -2.469,42.287 0,39.82 0,36.773 Z"
             style="fill:#e13426;fill-opacity:1;fill-rule:nonzero;stroke:none"
             id="path62"
             inkscape:connector-curvature="0" /></g><g
           id="g64"
           transform="translate(436.8234,560.6649)"><path
             d="m 0,0 c 0,-3.046 -2.473,-5.516 -5.519,-5.516 -3.046,0 -5.517,2.47 -5.517,5.516 v 36.773 c 0,3.047 2.471,5.514 5.517,5.514 C -2.473,42.287 0,39.82 0,36.773 Z"
             style="fill:#e13426;fill-opacity:1;fill-rule:nonzero;stroke:none"
             id="path66"
             inkscape:connector-curvature="0" /></g><g
           id="g68"
           transform="translate(509.9072,662.5587)"><path
             d="m 0,0 c 0,-5.589 -4.525,-10.119 -10.108,-10.119 -5.588,0 -10.115,4.53 -10.115,10.119 0,5.582 4.527,10.106 10.115,10.106 C -4.525,10.106 0,5.582 0,0"
             style="fill:#e13426;fill-opacity:1;fill-rule:nonzero;stroke:none"
             id="path70"
             inkscape:connector-curvature="0" /></g><g
           id="g72"
           transform="translate(503.7666,657.4404)"><path
             d="m 0,0 h -7.859 l -2.416,-27.204 H 2.417 Z"
             style="fill:#e13426;fill-opacity:1;fill-rule:nonzero;stroke:none"
             id="path74"
             inkscape:connector-curvature="0" /></g><g
           id="g76"
           transform="translate(470.2762,591.2285)"><path
             d="m 0,0 h 2.398 c 0.009,-4.651 3.77,-8.409 8.419,-8.418 4.649,0.009 8.41,3.767 8.417,8.418 h 0.002 2.397 C 21.632,-5.975 16.79,-10.812 10.817,-10.818 4.842,-10.812 0.003,-5.975 0,0"
             style="fill:#ffffff;fill-opacity:1;fill-rule:nonzero;stroke:none"
             id="path78"
             inkscape:connector-curvature="0" /></g><g
           id="g80"
           transform="translate(506.178,591.2285)"><path
             d="m 0,0 h 2.396 c 0.009,-4.651 3.77,-8.409 8.421,-8.418 4.647,0.009 8.41,3.767 8.417,8.418 h 0.002 2.397 C 21.632,-5.975 16.788,-10.812 10.817,-10.818 4.842,-10.812 0.002,-5.975 0,0"
             style="fill:#ffffff;fill-opacity:1;fill-rule:nonzero;stroke:none"
             id="path82"
             inkscape:connector-curvature="0" /></g><g
           id="g84"
           transform="translate(481.304,570.5905)"><path
             d="m 0,0 h 2.395 c 10e-4,-3.691 1.776,-7.057 4.742,-9.552 2.963,-2.485 7.109,-4.056 11.711,-4.056 4.603,0 8.747,1.571 11.711,4.056 2.968,2.498 4.743,5.861 4.744,9.552 h 0.003 2.392 C 37.662,-9.012 29.107,-15.988 18.848,-16.006 8.591,-15.988 0.036,-9.012 0,0"
             style="fill:#ffffff;fill-opacity:1;fill-rule:nonzero;stroke:none"
             id="path86"
             inkscape:connector-curvature="0" /></g></g></g></g></svg>